<svg width="138" height="60" viewBox="0 0 138 60" fill="none" xmlns="http://www.w3.org/2000/svg">
<path fill-rule="evenodd" clip-rule="evenodd" d="M125.337 19.2168L121.14 39.0461H130.059L136.344 9.3531H125.849L111.603 29.0011L115.762 9.3531H106.796L100.511 39.0461H110.815L125.337 19.2168Z" fill="#3151A1"/>
<path fill-rule="evenodd" clip-rule="evenodd" d="M85.6493 16.834L82.4675 31.8455C82.2536 32.8549 82.4855 33.2221 83.5359 33.2221H98.4074L97.173 39.046H80.2977C74.1023 39.046 72.6322 36.1674 73.8545 30.3995L76.5619 17.6259C77.7754 11.9013 80.2751 9.35299 86.2563 9.35299H103.466L102.232 15.177H87.696C86.5349 15.177 85.8889 15.7031 85.6493 16.834Z" fill="#3151A1"/>
<path fill-rule="evenodd" clip-rule="evenodd" d="M67.5497 15.177L62.4902 39.0461H53.571L58.6305 15.177H50.8652L52.0995 9.3531H76.1746L74.9404 15.177H67.5497Z" fill="#3151A1"/>
<path fill-rule="evenodd" clip-rule="evenodd" d="M129.444 42.6406H127.672L125.666 48.3947L126.119 42.6406H124.337L122.346 50.5771H123.242L125.034 43.5335H125.133L124.776 50.4779H125.672L128.269 43.5335H128.368L127.164 50.5771H128.06L129.444 42.6406ZM119.39 42.6406H121.381C121.58 42.6406 121.76 42.6756 121.921 42.7447C122.083 42.8143 122.215 42.9085 122.32 43.0276C122.424 43.1465 122.494 43.2905 122.532 43.459C122.569 43.6278 122.567 43.8114 122.524 44.0097L122.154 45.7556C122.112 45.9539 122.036 46.1393 121.927 46.3112C121.818 46.4832 121.685 46.6337 121.528 46.7627C121.371 46.8916 121.197 46.9941 121.005 47.07C120.813 47.1462 120.617 47.1841 120.418 47.1841H119.323L118.604 50.5771H117.708L119.39 42.6406ZM120.097 43.5335L119.512 46.2914H120.607C120.767 46.2914 120.907 46.2418 121.027 46.1426C121.148 46.0433 121.225 45.9144 121.259 45.7556L121.628 44.0097C121.661 43.8575 121.636 43.7402 121.554 43.6575C121.472 43.575 121.351 43.5335 121.192 43.5335H120.097ZM116.428 49.2477C116.386 49.4461 116.31 49.6314 116.201 49.8033C116.091 49.9753 115.958 50.1259 115.801 50.2548C115.644 50.3837 115.47 50.4861 115.278 50.5622C115.086 50.6382 114.891 50.6763 114.692 50.6763H114.094C113.895 50.6763 113.717 50.6382 113.561 50.5622C113.405 50.4861 113.275 50.3837 113.173 50.2548C113.071 50.1259 113 49.9753 112.961 49.8033C112.921 49.6314 112.922 49.4461 112.964 49.2477L114.074 44.0097C114.116 43.8114 114.194 43.6244 114.307 43.4491C114.421 43.2738 114.556 43.1219 114.713 42.9928C114.869 42.8638 115.042 42.763 115.229 42.6903C115.418 42.6174 115.611 42.5811 115.81 42.5811H116.407C116.606 42.5811 116.786 42.6174 116.947 42.6903C117.107 42.763 117.238 42.8638 117.34 42.9928C117.443 43.1219 117.511 43.2738 117.547 43.4491C117.583 43.6244 117.58 43.8114 117.538 44.0097L116.428 49.2477ZM116.642 44.0097C116.676 43.851 116.653 43.7221 116.575 43.6229C116.496 43.5236 116.378 43.4739 116.218 43.4739H115.621C115.462 43.4739 115.322 43.5236 115.201 43.6229C115.081 43.7221 115.003 43.851 114.97 44.0097L113.859 49.2477C113.826 49.4064 113.848 49.5355 113.927 49.6347C114.005 49.7338 114.124 49.7833 114.284 49.7833H114.881C115.04 49.7833 115.18 49.7338 115.3 49.6347C115.421 49.5355 115.498 49.4064 115.532 49.2477L116.642 44.0097ZM111.555 45.0017C111.589 44.8431 111.566 44.7138 111.488 44.6148C111.409 44.5155 111.29 44.466 111.131 44.466H111.041L110.124 48.7915H110.214C110.373 48.7915 110.513 48.7417 110.634 48.6426C110.755 48.5434 110.832 48.4145 110.865 48.2557L111.555 45.0017ZM109.385 45.0017L108.695 48.2557C108.661 48.4145 108.684 48.5434 108.762 48.6426C108.841 48.7417 108.96 48.7915 109.119 48.7915H109.229L110.145 44.466H110.036C109.877 44.466 109.737 44.5155 109.616 44.6148C109.496 44.7138 109.418 44.8431 109.385 45.0017ZM109.746 50.5771H108.85L109.04 49.6842H108.93C108.731 49.6842 108.553 49.6463 108.396 49.5701C108.24 49.494 108.111 49.3916 108.009 49.2625C107.907 49.1336 107.836 48.9832 107.796 48.8113C107.756 48.6393 107.757 48.4542 107.799 48.2557L108.489 45.0017C108.531 44.8032 108.609 44.6165 108.722 44.4414C108.836 44.2661 108.971 44.114 109.128 43.9848C109.284 43.8559 109.457 43.7551 109.645 43.6822C109.833 43.6097 110.026 43.5731 110.225 43.5731H110.335L110.532 42.6406H111.428L111.231 43.5731H111.32C111.519 43.5731 111.699 43.6097 111.86 43.6822C112.02 43.7551 112.151 43.8559 112.253 43.9848C112.355 44.114 112.424 44.2661 112.46 44.4414C112.496 44.6165 112.493 44.8032 112.451 45.0017L111.761 48.2557C111.719 48.4542 111.643 48.6393 111.534 48.8113C111.424 48.9832 111.292 49.1336 111.135 49.2625C110.978 49.3916 110.803 49.494 110.611 49.5701C110.419 49.6463 110.224 49.6842 110.025 49.6842H109.935L109.746 50.5771ZM107.427 42.6406L105.745 50.5771H104.849L105.684 46.6386H104.042L103.207 50.5771H102.311L103.993 42.6406H104.889L104.229 45.7556H105.871L106.532 42.6406H107.427ZM99.7035 50.5771L100.877 45.0415L97.7322 50.2497L97.6627 50.5771H96.767L98.4492 42.6406H99.3451L98.1739 48.1664L101.319 42.958L101.386 42.6406H102.282L100.599 50.5771H99.7035ZM95.2316 46.2715C95.2608 46.1326 95.2725 46.0235 95.2659 45.9441C95.2593 45.8647 95.2367 45.825 95.1967 45.825C95.1436 45.825 95.0367 45.8598 94.8761 45.9293C94.7151 45.9989 94.5488 46.0799 94.3766 46.1722C94.1749 46.2782 93.9506 46.3973 93.7038 46.5295L93.1043 49.3568C93.0763 49.4891 93.0906 49.5932 93.1476 49.6693C93.2045 49.7454 93.2994 49.7833 93.432 49.7833H94.0491C94.1819 49.7833 94.2942 49.7454 94.3868 49.6693C94.4791 49.5932 94.5396 49.4891 94.5676 49.3568L95.2316 46.2715ZM95.4633 49.3568C95.4254 49.5355 95.3546 49.7057 95.2507 49.8678C95.1467 50.0297 95.0223 50.1703 94.8776 50.2894C94.733 50.4084 94.5733 50.5026 94.3994 50.5722C94.2255 50.6415 94.0457 50.6763 93.8598 50.6763H93.2427C93.0568 50.6763 92.8917 50.6415 92.7468 50.5722C92.6026 50.5026 92.4832 50.4084 92.389 50.2894C92.2947 50.1703 92.23 50.0297 92.1946 49.8678C92.1595 49.7057 92.1607 49.5355 92.1985 49.3568L93.6241 42.6306H94.5199L93.8828 45.6365C94.0834 45.5044 94.2811 45.3853 94.4763 45.2796C94.6415 45.1869 94.8138 45.1043 94.9915 45.0313C95.1698 44.9587 95.3249 44.9225 95.4575 44.9225C95.7229 44.9225 95.9275 45.0149 96.0707 45.2002C96.214 45.3853 96.2576 45.6102 96.2015 45.8749L95.4633 49.3568ZM90.9393 43.841C90.9632 43.7286 90.9414 43.651 90.8741 43.6079C90.807 43.5649 90.6938 43.5433 90.5344 43.5433H88.7328L88.9221 42.6504H90.7338C91.1317 42.6504 91.4358 42.7497 91.6461 42.948C91.8563 43.1465 91.9192 43.4442 91.8351 43.841L91.5786 45.0515C91.5563 45.1572 91.5245 45.268 91.483 45.3836C91.4422 45.4993 91.3883 45.6118 91.3221 45.721C91.256 45.8299 91.1772 45.9276 91.086 46.0136C90.9949 46.0997 90.8872 46.1689 90.7633 46.222C90.8729 46.2684 90.9596 46.336 91.0236 46.4254C91.0875 46.5146 91.1327 46.6154 91.1586 46.7279C91.1844 46.8403 91.1949 46.956 91.1896 47.0749C91.184 47.1942 91.1699 47.3066 91.1478 47.4124L90.7187 49.4363C90.6348 49.833 90.4456 50.1306 90.1514 50.3291C89.857 50.5274 89.5108 50.6268 89.1126 50.6268H88.5453C88.1471 50.6268 87.8464 50.5274 87.6428 50.3291C87.4395 50.1306 87.3797 49.833 87.4639 49.4363L87.8151 47.7794H88.7109L88.3597 49.4363C88.336 49.5487 88.3525 49.6262 88.4097 49.6693C88.4669 49.7123 88.5753 49.7338 88.7346 49.7338H89.2919C89.4514 49.7338 89.5736 49.7123 89.659 49.6693C89.7444 49.6262 89.7991 49.5487 89.823 49.4363L90.2518 47.4124C90.263 47.3593 90.2635 47.2951 90.253 47.219C90.2428 47.1429 90.2212 47.0718 90.1889 47.0058C90.1564 46.9397 90.112 46.8835 90.0555 46.8371C89.9988 46.7908 89.9309 46.7675 89.8511 46.7675H88.6168L88.8061 45.8749H90.0404C90.1199 45.8749 90.1964 45.8417 90.2705 45.7757C90.3443 45.7094 90.4087 45.6316 90.4641 45.5423C90.5198 45.4532 90.5669 45.3622 90.6067 45.2696C90.6462 45.177 90.6715 45.1043 90.6828 45.0515L90.9393 43.841ZM85.2117 43.5335H86.3065L85.8272 45.7955H84.7324C84.5729 45.7955 84.4539 45.7458 84.3756 45.6465C84.2971 45.5473 84.2748 45.4183 84.3084 45.2598L84.5731 44.0097C84.6056 43.8575 84.6803 43.7402 84.7972 43.6575C84.9142 43.575 85.0522 43.5335 85.2117 43.5335ZM85.7097 50.5771L87.3918 42.6406H85.4011C85.2019 42.6406 85.0086 42.6756 84.8214 42.7447C84.6341 42.8143 84.4631 42.9085 84.3087 43.0276C84.154 43.1465 84.0205 43.2905 83.9086 43.459C83.7965 43.6278 83.7194 43.8114 83.6773 44.0097L83.4124 45.2598C83.3732 45.4449 83.368 45.6184 83.3965 45.7806C83.4254 45.9427 83.4842 46.0864 83.5739 46.212C83.6634 46.3375 83.7758 46.4417 83.9107 46.5246C84.0458 46.6072 84.2009 46.6584 84.3759 46.6783L82.1458 50.5771H83.0616L85.2896 46.6882H85.6379L84.8136 50.5771H85.7097ZM81.3502 42.6406C81.5161 42.6406 81.6637 42.6721 81.7929 42.7349C81.9222 42.7979 82.0304 42.8838 82.1166 42.9928C82.2029 43.1021 82.2627 43.2276 82.2955 43.3697C82.3284 43.512 82.3273 43.6657 82.2922 43.8312L81.9893 45.2598C81.9347 45.5176 81.8139 45.7525 81.6262 45.9641C81.4389 46.1755 81.2217 46.331 80.975 46.4303C81.2007 46.5229 81.3695 46.6752 81.4805 46.8866C81.5916 47.0983 81.6177 47.343 81.5588 47.6207L81.1845 49.3867C81.1495 49.5518 81.0854 49.7057 80.9918 49.848C80.8987 49.9901 80.786 50.1158 80.6534 50.2249C80.5207 50.3342 80.3765 50.42 80.2205 50.4828C80.0644 50.5456 79.9036 50.5771 79.7376 50.5771H77.4681L79.1502 42.6406H81.3502ZM80.5917 45.984C80.737 45.9244 80.8487 45.8201 80.9269 45.6715C81.0046 45.5225 81.0556 45.392 81.0795 45.2796L81.3866 43.8312C81.4034 43.7518 81.3936 43.6806 81.3571 43.6177C81.3207 43.5551 81.2559 43.5236 81.1628 43.5236H79.8589L79.3374 45.984H80.5917ZM80.6629 47.6207C80.6909 47.4886 80.6829 47.3461 80.6388 47.1942C80.5947 47.0419 80.5129 46.9362 80.3924 46.8768H79.1481L78.5533 49.6842H79.917C80.0165 49.6842 80.0983 49.6579 80.1626 49.6049C80.227 49.5518 80.269 49.4791 80.2886 49.3867L80.6629 47.6207ZM75.6737 47.6802H76.5694L76.2373 49.2477C76.1955 49.4461 76.1197 49.6314 76.0102 49.8033C75.9008 49.9753 75.7678 50.1259 75.6106 50.2548C75.4541 50.3837 75.28 50.4861 75.0877 50.5622C74.8956 50.6382 74.7004 50.6763 74.5012 50.6763H73.9039C73.7049 50.6763 73.5271 50.6382 73.3707 50.5622C73.2145 50.4861 73.085 50.3837 72.9829 50.2548C72.8811 50.1259 72.8099 49.9753 72.7701 49.8033C72.7303 49.6314 72.7311 49.4461 72.7732 49.2477L73.8836 44.0097C73.9256 43.8114 74.0034 43.6244 74.1168 43.4491C74.2303 43.2738 74.3653 43.1219 74.5222 42.9928C74.6789 42.8638 74.8514 42.763 75.039 42.6903C75.2272 42.6174 75.4206 42.5811 75.6196 42.5811H76.217C76.4161 42.5811 76.5959 42.6174 76.7562 42.6903C76.9167 42.763 77.048 42.8638 77.1501 42.9928C77.2522 43.1219 77.3211 43.2738 77.3568 43.4491C77.3929 43.6244 77.3896 43.8114 77.3475 44.0097L77.0826 45.2598H76.1868L76.4517 44.0097C76.4854 43.851 76.4628 43.7221 76.3843 43.6229C76.306 43.5236 76.1871 43.4739 76.0278 43.4739H75.4306C75.2713 43.4739 75.1315 43.5236 75.0107 43.6229C74.8902 43.7221 74.8132 43.851 74.7792 44.0097L73.6692 49.2477C73.6356 49.4064 73.6579 49.5355 73.7364 49.6347C73.8149 49.7338 73.9339 49.7833 74.0932 49.7833H74.6906C74.8233 49.7833 74.9274 49.7703 75.0025 49.7436C75.0777 49.7172 75.1351 49.6809 75.1751 49.6347C75.2146 49.5883 75.2448 49.5319 75.2656 49.4659C75.2862 49.3997 75.3048 49.3272 75.3216 49.2477L75.6539 47.6802H75.6737ZM70.9342 43.6031L70.7402 47.7596H69.1575L70.7054 43.6031C70.7161 43.583 70.7302 43.5566 70.7469 43.5236C70.7641 43.4904 70.7924 43.4739 70.8323 43.4739H70.8623C70.8887 43.4739 70.9108 43.4938 70.9292 43.5335C70.9383 43.5533 70.9398 43.5765 70.9342 43.6031ZM70.6307 50.5771H71.5266L71.8359 42.9185C71.8409 42.8324 71.8092 42.7546 71.741 42.6854C71.6727 42.6158 71.5855 42.5811 71.4794 42.5811H70.5933C70.4872 42.5811 70.3851 42.6174 70.2864 42.6903C70.1882 42.763 70.124 42.8389 70.0938 42.9185L67.1864 50.5771H68.0822L68.8389 48.6524H70.6802L70.6307 50.5771ZM66.6893 42.6406C66.8553 42.6406 67.0029 42.6721 67.132 42.7349C67.2615 42.7979 67.3694 42.8838 67.4558 42.9928C67.5421 43.1021 67.6018 43.2276 67.6346 43.3697C67.6675 43.512 67.6664 43.6657 67.6313 43.8312L67.3286 45.2598C67.2738 45.5176 67.153 45.7525 66.9653 45.9641C66.778 46.1755 66.5608 46.331 66.3141 46.4303C66.54 46.5229 66.7086 46.6752 66.8198 46.8866C66.9307 47.0983 66.9568 47.343 66.8979 47.6207L66.5236 49.3867C66.4886 49.5518 66.4245 49.7057 66.3311 49.848C66.2378 49.9901 66.1251 50.1158 65.9925 50.2249C65.8599 50.3342 65.7158 50.42 65.5596 50.4828C65.4035 50.5456 65.2429 50.5771 65.0768 50.5771H62.8072L64.4893 42.6406H66.6893ZM65.9308 45.984C66.0761 45.9244 66.188 45.8201 66.266 45.6715C66.3437 45.5225 66.3949 45.392 66.4187 45.2796L66.7257 43.8312C66.7424 43.7518 66.7326 43.6806 66.6963 43.6177C66.6598 43.5551 66.595 43.5236 66.5021 43.5236H65.1981L64.6765 45.984H65.9308ZM66.002 47.6207C66.03 47.4886 66.0221 47.3461 65.9779 47.1942C65.9338 47.0419 65.852 46.9362 65.7315 46.8768H64.4872L63.8924 49.6842H65.2562C65.3556 49.6842 65.4376 49.6579 65.5017 49.6049C65.5663 49.5518 65.6081 49.4791 65.6279 49.3867L66.002 47.6207ZM61.1056 50.5771H60.2098L61.8919 42.6406H62.7879L61.1056 50.5771ZM59.1614 46.2715L58.4974 49.3568C58.4693 49.4891 58.4092 49.5932 58.3166 49.6693C58.2243 49.7454 58.1118 49.7833 57.9791 49.7833H57.3619C57.2291 49.7833 57.1342 49.7454 57.0774 49.6693C57.0205 49.5932 57.0062 49.4891 57.0342 49.3568L57.6335 46.5295C57.8804 46.3973 58.1049 46.2782 58.3064 46.1722C58.4785 46.0799 58.6451 45.9989 58.8059 45.9293C58.9667 45.8598 59.0737 45.825 59.1268 45.825C59.1665 45.825 59.1894 45.8647 59.1958 45.9441C59.2024 46.0235 59.1907 46.1326 59.1614 46.2715ZM59.3933 49.3568L60.1313 45.8749C60.1873 45.6102 60.1441 45.3853 60.0008 45.2002C59.8574 45.0149 59.653 44.9225 59.3876 44.9225C59.2548 44.9225 59.0996 44.9587 58.9216 45.0313C58.7436 45.1043 58.5716 45.1869 58.4061 45.2796C58.2112 45.3853 58.0133 45.5044 57.8127 45.6365L58.4498 42.6306H57.554L56.1283 49.3568C56.0906 49.5355 56.0893 49.7057 56.1247 49.8678C56.1597 50.0297 56.2247 50.1703 56.3191 50.2894C56.4132 50.4084 56.5327 50.5026 56.6769 50.5722C56.8216 50.6415 56.9867 50.6763 57.1726 50.6763H57.7897C57.9756 50.6763 58.1554 50.6415 58.3294 50.5722C58.5034 50.5026 58.6628 50.4084 58.8075 50.2894C58.9522 50.1703 59.0765 50.0297 59.1806 49.8678C59.2845 49.7057 59.3555 49.5355 59.3933 49.3568ZM55.0538 43.5335L53.5608 50.5771H52.665L54.158 43.5335H52.7644L52.9535 42.6406H56.6369L56.4476 43.5335H55.0538Z" fill="#3151A1"/>
<path fill-rule="evenodd" clip-rule="evenodd" d="M36.0514 4.80499L17.4201 17.8876C15.3185 19.3742 14.0049 21.5326 13.5828 23.8079C13.164 26.0649 13.6252 28.4286 15.0684 30.3481L22.028 39.6098L19.4256 41.4504L12.417 32.1418C10.4433 29.5161 9.8068 26.3134 10.3708 23.2747C10.9309 20.2542 12.6809 17.3848 15.4826 15.403L30.5759 4.80499H36.0514Z" fill="#3151A1"/>
<path d="M27.1017 31.8017L24.8395 33.4245L19.9377 26.9044C19.4311 26.2305 19.2725 25.3815 19.424 24.5641C19.5791 23.7283 20.0556 22.9371 20.8134 22.401L50.2291 1.59651H44.7787L18.8759 19.9165C17.4178 20.9477 16.5051 22.4514 16.2121 24.0308C15.9157 25.6284 16.2491 27.3182 17.2864 28.6983L24.3872 37.9415L25.5909 37.0904C25.6856 37.0262 25.77 36.9538 25.8456 36.8756L29.1712 34.4447L27.1017 31.8017Z" fill="#3151A1"/>
<path d="M7.74202 23.0517C8.43129 19.336 10.582 15.8108 14.0274 13.3744L21.8117 7.86874H16.3613L12.0899 10.8897C7.94445 13.8214 5.35735 18.0574 4.52974 22.5185C3.69884 26.9981 4.63792 31.7145 7.54794 35.5856L14.589 44.8599L17.1749 43.0421L10.1991 33.7919C7.81988 30.6269 7.05603 26.7489 7.74202 23.0517Z" fill="#3151A1"/>
<path fill-rule="evenodd" clip-rule="evenodd" d="M15.7739 55.2242L34.4052 42.1416C36.5068 40.655 37.8204 38.4967 38.2425 36.2214C38.6613 33.9643 38.2001 31.6006 36.7569 29.6811L29.7973 20.4194L32.3997 18.5788L39.4083 27.8874C41.382 30.5131 42.0185 33.7159 41.4545 36.7546C40.8944 39.775 39.1444 42.6445 36.3427 44.6262L21.2494 55.2242H15.7739Z" fill="#FFF215"/>
<path d="M24.724 28.2276L26.9863 26.6047L31.888 33.1249C32.3947 33.7987 32.5532 34.6477 32.4017 35.4652C32.2467 36.301 31.7702 37.0921 31.0124 37.6283L1.59668 58.4327H7.04708L32.9499 40.1127C34.4079 39.0816 35.3206 37.5778 35.6137 35.9984C35.9101 34.4009 35.5767 32.7111 34.5394 31.331L27.4385 22.0877L26.2349 22.9388C26.1401 23.003 26.0557 23.0754 25.9801 23.1537L22.6546 25.5845L24.724 28.2276Z" fill="#FFF215"/>
<path d="M44.0833 36.9774C43.394 40.6931 41.2433 44.2183 37.7979 46.6547L30.0137 52.1604H35.4641L39.7354 49.1395C43.8809 46.2078 46.468 41.9718 47.2956 37.5107C48.1265 33.0311 47.1874 28.3146 44.2774 24.4436L37.2363 15.1693L34.6504 16.987L41.6262 26.2373C44.0055 29.4023 44.7693 33.2802 44.0833 36.9774Z" fill="#FFF215"/>
</svg>
